# xmcd
# Copyright (C) 1995-1998 Ti Kan
#
# Track frame offsets:
#       150
#       16449
#       33261
#       46295
#       60025
#       75628
#       92865
#       117743
#       134742
#       151558
#       167646
#       185014
#       200857
#
# Disc length: 2932 seconds
#
# Revision: 0
# Processed by: cddbd v1.4PL0 Copyright (c) Steve Scherf et al.
# Submitted via: CD-Transfer v1.0
#
DISCID=ab0b720d
DTITLE=Adesso - Verso La Luna
DYEAR=2002
DGENRE=
TTITLE0=R-G-B
TTITLE1=Missing You
TTITLE2=L' Apriscatole
TTITLE3=Stanotte
TTITLE4=Sono Innamorato
TTITLE5=Sto Cercando
TTITLE6=Troppo Femminile
TTITLE7=Come Sei Brava
TTITLE8=I'evoluzione Sessuale
TTITLE9=Un Gioco Erotico
TTITLE10=Anima
TTITLE11=Mio Fratello
TTITLE12=Lo Farò
EXTD=
EXTT0=
EXTT1=
EXTT2=
EXTT3=
EXTT4=
EXTT5=
EXTT6=
EXTT7=
EXTT8=
EXTT9=
EXTT10=
EXTT11=
EXTT12=
PLAYORDER=
